<?xml version="1.0" standalone="no"?><!DOCTYPE svg PUBLIC "-//W3C//DTD SVG 1.1//EN" "http://www.w3.org/Graphics/SVG/1.1/DTD/svg11.dtd"><svg t="1710502524239" class="icon" viewBox="0 0 1024 1024" version="1.1" xmlns="http://www.w3.org/2000/svg" p-id="8031" xmlns:xlink="http://www.w3.org/1999/xlink" width="200" height="200"><path d="M725.333333 721.066667l-38.4-38.4H379.733333l-38.4 38.4V768h384v-46.933333z m85.333334-38.4v170.666666H256v-170.666666h4.266667l85.333333-85.333334h375.466667l89.6 85.333334z m-85.333334-320c0 106.666667-85.333333 192-192 192S341.333333 469.333333 341.333333 362.666667 426.666667 170.666667 533.333333 170.666667 725.333333 256 725.333333 362.666667z m-85.333333 0C640 302.933333 593.066667 256 533.333333 256S426.666667 302.933333 426.666667 362.666667s46.933333 106.666667 106.666666 106.666666S640 422.4 640 362.666667z" fill="#444444" p-id="8032"></path></svg>